# xmcd
#
# Track frame offsets:
#	150
#	10020
#	24304
#	39152
#	53810
#	65362
#	77440
#	86837
#	96972
#	110446
#	120779
#	128878
#	141805
#	153638
#	168211
#	180259
#	192632
#	204813
#	213770
#	223117
#	239415
#	251264
#	263475
#	274820
#	286220
#	297526
#	310569
#	327544
#	338265
#	353990
#	368425
#
# Disc length: 5045 seconds
# Revision: 0
# Processed by: cddbd v1.5.2PL0 Copyright (c) Steve Scherf et al.
# Submitted via: dBpowerAMP V12.0
#
DISCID=ad13b31f
DTITLE=Tennessee Ernie Ford - Portrait Of An American Singer [Disc 5]
DYEAR=2015
DGENRE=Country
TTITLE0=Browns Ferry Blues
TTITLE1=Black Is The Color Of My True Love's Hair
TTITLE2=My Grandfather's Clock
TTITLE3=Code Of The Mountains
TTITLE4=Small World
TTITLE5=Left My Gal In The Mountains
TTITLE6=Blackeyed Susie
TTITLE7=Pretty Little Pink
TTITLE8=Look Down (That Lonesome Road)
TTITLE9=Love Is The Only Thing
TTITLE10=Darby's Ram 
TTITLE11=Freight Train Blues
TTITLE12=Barbara Allen 
TTITLE13=Twenty One Years
TTITLE14=Old Blue
TTITLE15=The Night Herding Song
TTITLE16=Sunny Side Of Heaven
TTITLE17=Little Klinker 
TTITLE18=Jingle - The Brownie 
TTITLE19=Jealous Heart
TTITLE20=I Forgot More Than You'll Ever Know
TTITLE21=I Really Don't Want To Know
TTITLE22=Molly Darling
TTITLE23=Don't Rob Another Man's Castle
TTITLE24=I Can't Help It 
TTITLE25=Take Me In Your Arms And Hold Me
TTITLE26=I Gotta Have My Baby Back
TTITLE27=Bouquet Of Roses
TTITLE28=Cold, Cold Heart
TTITLE29=I Love You So Much It Hurts
TTITLE30=Half As Much 
EXTD=
EXTT0=
EXTT1=
EXTT2=
EXTT3=
EXTT4=
EXTT5=
EXTT6=
EXTT7=
EXTT8=
EXTT9=
EXTT10=
EXTT11=
EXTT12=
EXTT13=
EXTT14=
EXTT15=
EXTT16=
EXTT17=
EXTT18=
EXTT19=
EXTT20=
EXTT21=
EXTT22=
EXTT23=
EXTT24=
EXTT25=
EXTT26=
EXTT27=
EXTT28=
EXTT29=
EXTT30=
PLAYORDER=
